<?xml version="1.0" encoding="utf-8"?>
<!-- Generator: Adobe Illustrator 26.5.0, SVG Export Plug-In . SVG Version: 6.00 Build 0)  -->
<svg version="1.1" id="Calque_1" xmlns="http://www.w3.org/2000/svg" xmlns:xlink="http://www.w3.org/1999/xlink" x="0px" y="0px"
	 viewBox="0 0 50 50" style="enable-background:new 0 0 50 50;" xml:space="preserve">
<style type="text/css">
	.st0{fill:#BA931C;}
	.st1{fill:#FFFFFF;}
</style>
<path class="st0" d="M10.6,5.1c0-1.1,0-2.1,0-3.2c0-1.2,0.8-2,1.9-2c1.1,0,1.9,0.7,1.9,1.9c0,0.9,0,1.8,0,2.7c0,0.4,0.1,0.5,0.6,0.5
	c6.8,0,13.6,0,20.4,0c0.1,0,0.1,0,0.3-0.1c0-0.8,0-1.6,0-2.5c0-0.3,0-0.6,0-0.9c0.1-1,0.8-1.7,1.9-1.7c1,0,1.8,0.7,1.9,1.7
	c0,1.1,0,2.2,0,3.4c0.3,0,0.6,0,0.9,0c1.9,0,3.9,0,5.8,0c2.5,0,3.9,1.4,3.9,3.7c0,12.5,0,25,0,37.4c0,2.4-1.4,3.7-4,3.7
	C32,50,18,50,3.9,50C1.4,50,0,48.7,0,46.4C0,33.8,0,21.2,0,8.6c0-2,1.5-3.4,3.7-3.5c2,0,4,0,5.9,0C9.9,5.1,10.1,5.1,10.6,5.1z
	 M2.9,18.5c0,0.4,0,0.8,0,1.1c0,8.6,0,17.3,0,25.9c0,1.3,0.4,1.7,1.9,1.7c13.5,0,26.9,0,40.4,0c1.4,0,1.8-0.4,1.8-1.7
	c0-8.7,0-17.5,0-26.2c0-0.3,0-0.5,0-0.8C32.3,18.5,17.7,18.5,2.9,18.5z M10.6,8c-1,0.7-1.4,1.9-1,2.9c0.4,1.2,1.7,2,3,2
	c1.3,0,2.5-0.9,2.8-2.1c0.3-1.1,0-2.3-1-2.9c0,0.7,0,1.3,0,1.8c0,1.1-0.7,1.9-1.9,1.9c-1.1,0-1.9-0.7-1.9-1.9
	C10.5,9.3,10.6,8.7,10.6,8z M35.6,8c-1.1,0.8-1.4,2-1,3.1c0.4,1.2,1.6,1.9,3,1.9c1.3,0,2.5-0.9,2.8-2c0.3-1,0-2.2-1-2.9
	c0,0.6,0,1.2,0,1.8c0,1.2-0.8,1.9-1.9,1.9c-1.2,0-1.9-0.7-1.9-1.9C35.6,9.3,35.6,8.7,35.6,8z"/>
<path class="st1" d="M2.9,18.5c14.8,0,29.4,0,44.1,0c0,0.3,0,0.6,0,0.8c0,8.7,0,17.5,0,26.2c0,1.3-0.4,1.7-1.8,1.7
	c-13.5,0-26.9,0-40.4,0c-1.5,0-1.9-0.4-1.9-1.7c0-8.6,0-17.3,0-25.9C2.9,19.3,2.9,19,2.9,18.5z M20.5,35.6c0.6,0,1.2,0,1.8,0
	c0.8,0,1.1-0.2,1.1-0.9c0-1.1,0-2.3,0-3.4c0-0.6-0.4-1-1-1c-1.2,0-2.4,0-3.7,0c-0.6,0-1,0.3-1,0.9c0,1.2,0,2.4,0,3.6
	c0,0.6,0.3,0.9,0.9,0.9C19.3,35.6,19.9,35.6,20.5,35.6z M29.4,35.6C29.4,35.6,29.4,35.6,29.4,35.6c0.6,0,1.3,0,1.9,0
	c0.6,0,0.9-0.3,0.9-0.8c0-1.2,0-2.4,0-3.6c0-0.6-0.4-0.9-0.9-0.9c-1.3,0-2.5,0-3.8,0c-0.5,0-0.9,0.3-0.9,0.8c0,1.2,0,2.4,0,3.6
	c0,0.6,0.3,0.9,0.9,0.9C28.2,35.6,28.8,35.6,29.4,35.6z M11.6,27.3c0.6,0,1.3,0,1.9,0c0.6,0,1-0.3,1-0.9c0-1.2,0-2.4,0-3.6
	c0-0.6-0.4-0.8-1-0.8c-1.2,0-2.5,0-3.7,0c-0.6,0-0.9,0.3-1,0.9c0,1.2,0,2.4,0,3.6c0,0.6,0.4,0.8,1,0.8C10.4,27.3,11,27.3,11.6,27.3z
	 M20.6,21.9c-0.6,0-1.3,0-1.9,0c-0.6,0-0.9,0.3-1,0.9c0,1.2,0,2.4,0,3.6c0,0.5,0.3,0.8,0.9,0.8c1.3,0,2.5,0,3.8,0c0.6,0,1-0.3,1-0.9
	c0-1.2,0-2.3,0-3.5c0-0.6-0.3-0.9-1-0.9C21.8,21.9,21.2,21.9,20.6,21.9z M29.4,27.3c0.6,0,1.3,0,1.9,0c0.6,0,0.9-0.3,0.9-0.8
	c0-1.2,0-2.5,0-3.7c0-0.5-0.3-0.8-0.9-0.8c-1.3,0-2.5,0-3.8,0c-0.6,0-0.9,0.3-0.9,0.9c0,1.2,0,2.4,0,3.6c0,0.6,0.4,0.9,1,0.9
	C28.2,27.3,28.8,27.3,29.4,27.3z M38.4,27.3C38.4,27.3,38.4,27.3,38.4,27.3c0.6,0,1.2,0,1.8,0c0.7,0,1-0.3,1-0.9c0-1.1,0-2.3,0-3.4
	c0-0.6-0.3-1-1-1c-1.2,0-2.5,0-3.7,0c-0.6,0-1,0.3-1,0.9c0,1.2,0,2.3,0,3.5c0,0.6,0.4,0.9,1,0.9C37.2,27.3,37.8,27.3,38.4,27.3z
	 M11.6,35.6C11.6,35.6,11.6,35.6,11.6,35.6c0.6,0,1.3,0,1.9,0c0.6,0,0.9-0.3,1-0.9c0-1.2,0-2.4,0-3.6c0-0.6-0.4-0.9-1-0.9
	c-1.2,0-2.4,0-3.7,0c-0.6,0-1,0.3-1,0.8c0,1.2,0,2.4,0,3.6c0,0.6,0.3,0.8,1,0.8C10.4,35.5,11,35.6,11.6,35.6z M38.4,35.6
	c0.6,0,1.2,0,1.8,0c0.7,0,1-0.3,1-0.9c0-1.2,0-2.3,0-3.5c0-0.6-0.3-0.9-1-0.9c-1.2,0-2.5,0-3.7,0c-0.6,0-1,0.3-1,0.9
	c0,1.2,0,2.4,0,3.6c0,0.6,0.3,0.8,1,0.8C37.1,35.6,37.7,35.6,38.4,35.6z M11.6,43.9c0.6,0,1.3,0,1.9,0c0.6,0,1-0.3,1-0.9
	c0-1.2,0-2.3,0-3.5c0-0.6-0.3-0.9-1-0.9c-1.3,0-2.5,0-3.8,0c-0.6,0-0.9,0.3-0.9,0.9c0,1.2,0,2.4,0,3.6c0,0.6,0.4,0.9,1,0.9
	C10.4,43.9,11,43.9,11.6,43.9z M17.7,41.2c0,0.6,0,1.1,0,1.7c0,0.6,0.3,1,1,1c1.2,0,2.5,0,3.7,0c0.6,0,1-0.3,1-0.9
	c0-1.2,0-2.3,0-3.5c0-0.6-0.4-0.9-1-0.9c-1.2,0-2.5,0-3.8,0c-0.6,0-1,0.3-1,0.9C17.7,40.1,17.7,40.6,17.7,41.2z M29.4,43.9
	c0.6,0,1.2,0,1.9,0c0.6,0,1-0.3,1-0.9c0-1.2,0-2.4,0-3.6c0-0.6-0.4-0.9-0.9-0.9c-1.3,0-2.5,0-3.8,0c-0.5,0-0.9,0.3-0.9,0.8
	c0,1.2,0,2.4,0,3.6c0,0.6,0.3,0.9,0.9,0.9C28.2,43.9,28.8,43.9,29.4,43.9z"/>
<path class="st1" d="M10.6,8c0,0.7,0,1.3,0,1.9c0,1.1,0.8,1.9,1.9,1.9c1.1,0,1.8-0.7,1.9-1.9c0-0.6,0-1.2,0-1.8c1,0.6,1.4,1.8,1,2.9
	c-0.3,1.2-1.5,2-2.8,2.1c-1.4,0-2.6-0.8-3-2C9.2,9.9,9.5,8.7,10.6,8z"/>
<path class="st1" d="M35.6,8c0,0.7,0,1.3,0,1.9c0,1.2,0.8,1.9,1.9,1.9c1.1,0,1.9-0.8,1.9-1.9c0-0.6,0-1.1,0-1.8c1,0.7,1.4,1.8,1,2.9
	c-0.4,1.2-1.6,2-2.8,2c-1.3,0-2.5-0.7-3-1.9C34.3,10,34.6,8.8,35.6,8z"/>
<path class="st0" d="M20.5,35.6c-0.6,0-1.2,0-1.9,0c-0.6,0-0.9-0.3-0.9-0.9c0-1.2,0-2.4,0-3.6c0-0.6,0.4-0.9,1-0.9
	c1.2,0,2.4,0,3.7,0c0.7,0,1,0.3,1,1c0,1.1,0,2.3,0,3.4c0,0.7-0.3,0.9-1.1,0.9C21.7,35.6,21.1,35.6,20.5,35.6z"/>
<path class="st0" d="M29.4,35.6c-0.6,0-1.2,0-1.9,0c-0.6,0-0.9-0.3-0.9-0.9c0-1.2,0-2.4,0-3.6c0-0.5,0.4-0.8,0.9-0.8
	c1.3,0,2.5,0,3.8,0c0.6,0,0.9,0.3,0.9,0.9c0,1.2,0,2.4,0,3.6c0,0.5-0.3,0.8-0.9,0.8C30.7,35.6,30.1,35.6,29.4,35.6
	C29.4,35.6,29.4,35.6,29.4,35.6z"/>
<path class="st0" d="M11.6,27.3c-0.6,0-1.2,0-1.8,0c-0.6,0-1-0.3-1-0.8c0-1.2,0-2.4,0-3.6c0-0.6,0.3-0.9,1-0.9c1.2,0,2.5,0,3.7,0
	c0.6,0,1,0.3,1,0.8c0,1.2,0,2.4,0,3.6c0,0.6-0.4,0.8-1,0.9C12.9,27.3,12.2,27.3,11.6,27.3z"/>
<path class="st0" d="M20.6,21.9c0.6,0,1.2,0,1.8,0c0.6,0,1,0.3,1,0.9c0,1.2,0,2.3,0,3.5c0,0.6-0.3,0.9-1,0.9c-1.3,0-2.5,0-3.8,0
	c-0.6,0-0.9-0.3-0.9-0.8c0-1.2,0-2.4,0-3.6c0-0.6,0.4-0.8,1-0.9C19.3,21.9,20,21.9,20.6,21.9z"/>
<path class="st0" d="M29.4,27.3c-0.6,0-1.2,0-1.8,0c-0.6,0-1-0.3-1-0.9c0-1.2,0-2.4,0-3.6c0-0.6,0.3-0.9,0.9-0.9c1.3,0,2.5,0,3.8,0
	c0.6,0,0.9,0.3,0.9,0.8c0,1.2,0,2.5,0,3.7c0,0.5-0.4,0.8-0.9,0.8C30.7,27.3,30.1,27.3,29.4,27.3z"/>
<path class="st0" d="M38.4,27.3c-0.6,0-1.2,0-1.8,0c-0.7,0-1-0.3-1-0.9c0-1.2,0-2.3,0-3.5c0-0.6,0.3-0.9,1-0.9c1.2,0,2.5,0,3.7,0
	c0.7,0,1,0.3,1,1c0,1.1,0,2.3,0,3.4c0,0.6-0.3,1-1,0.9C39.6,27.2,39,27.2,38.4,27.3C38.4,27.3,38.4,27.3,38.4,27.3z"/>
<path class="st0" d="M11.6,35.6c-0.6,0-1.2,0-1.8,0c-0.6,0-1-0.3-1-0.8c0-1.2,0-2.4,0-3.6c0-0.6,0.4-0.8,1-0.8c1.2,0,2.4,0,3.7,0
	c0.6,0,1,0.3,1,0.9c0,1.2,0,2.4,0,3.6c0,0.6-0.3,0.9-1,0.9C12.9,35.6,12.2,35.6,11.6,35.6C11.6,35.6,11.6,35.6,11.6,35.6z"/>
<path class="st0" d="M38.4,35.6c-0.6,0-1.2,0-1.9,0c-0.6,0-0.9-0.3-1-0.8c0-1.2,0-2.4,0-3.6c0-0.5,0.4-0.9,1-0.9c1.2,0,2.5,0,3.7,0
	c0.6,0,1,0.3,1,0.9c0,1.2,0,2.3,0,3.5c0,0.6-0.4,0.9-1,0.9C39.6,35.5,39,35.6,38.4,35.6z"/>
<path class="st0" d="M11.6,43.9c-0.6,0-1.2,0-1.8,0c-0.7,0-1-0.3-1-0.9c0-1.2,0-2.4,0-3.6c0-0.6,0.4-0.9,0.9-0.9c1.3,0,2.5,0,3.8,0
	c0.6,0,1,0.3,1,0.9c0,1.2,0,2.3,0,3.5c0,0.6-0.3,0.9-1,0.9C12.9,43.9,12.2,43.9,11.6,43.9z"/>
<path class="st0" d="M17.7,41.2c0-0.6,0-1.2,0-1.8c0-0.6,0.3-0.9,1-0.9c1.2,0,2.5,0,3.8,0c0.6,0,1,0.3,1,0.9c0,1.2,0,2.3,0,3.5
	c0,0.6-0.4,0.9-1,0.9c-1.2,0-2.5,0-3.7,0c-0.7,0-1-0.3-1-1C17.7,42.4,17.7,41.8,17.7,41.2z"/>
<path class="st0" d="M29.4,43.9c-0.6,0-1.2,0-1.9,0c-0.6,0-0.9-0.3-0.9-0.9c0-1.2,0-2.4,0-3.6c0-0.5,0.4-0.8,0.9-0.8
	c1.3,0,2.5,0,3.8,0c0.6,0,0.9,0.3,0.9,0.9c0,1.2,0,2.4,0,3.6c0,0.6-0.4,0.9-1,0.9C30.7,43.9,30,43.9,29.4,43.9z"/>
</svg>
