<?xml version="1.0" encoding="UTF-8"?><svg id="Calque_1" xmlns="http://www.w3.org/2000/svg" viewBox="0 0 69 70"><defs><style>.cls-1{fill:#326880;}</style></defs><path class="cls-1" d="M5.2,33.93c0-4.23,.79-8.17,2.36-11.81,1.57-3.64,3.73-6.84,6.48-9.58,2.75-2.74,5.94-4.9,9.58-6.48,3.64-1.57,7.58-2.36,11.81-2.36h30.37v30.23c0,4.14-.79,8.05-2.36,11.74-1.57,3.69-3.76,6.93-6.55,9.72-2.79,2.79-6.03,4.97-9.72,6.55-3.69,1.57-7.6,2.36-11.74,2.36s-8.17-.79-11.81-2.36c-3.64-1.57-6.84-3.76-9.58-6.55-2.74-2.79-4.9-6.03-6.48-9.72-1.57-3.69-2.36-7.6-2.36-11.74ZM53.79,15.71h-18.35c-2.52,0-4.88,.47-7.09,1.42-2.2,.94-4.14,2.25-5.8,3.91-1.66,1.67-2.97,3.6-3.91,5.8-.94,2.21-1.42,4.57-1.42,7.09s.47,4.9,1.42,7.15c.94,2.25,2.25,4.21,3.91,5.87,1.67,1.67,3.6,2.97,5.8,3.91,2.21,.94,4.57,1.42,7.09,1.42s4.91-.47,7.15-1.42c2.25-.94,4.21-2.25,5.87-3.91,1.67-1.66,2.97-3.62,3.91-5.87,.94-2.25,1.42-4.63,1.42-7.15V15.71Z"/></svg>