<?xml version="1.0" encoding="utf-8"?>
<!-- Generator: Adobe Illustrator 26.5.0, SVG Export Plug-In . SVG Version: 6.00 Build 0)  -->
<svg version="1.1" id="Calque_1" xmlns="http://www.w3.org/2000/svg" xmlns:xlink="http://www.w3.org/1999/xlink" x="0px" y="0px"
	 viewBox="0 0 50 50" style="enable-background:new 0 0 50 50;" xml:space="preserve">
<style type="text/css">
	.st0{fill:#C1262D;}
	.st1{fill:#FFFFFF;}
</style>
<g>
	<path class="st0" d="M47.4,50H2.6c-2,0-3.3-2.6-2.3-4.6L22.7,1.5c1-2,3.5-2,4.5,0l22.4,43.9C50.7,47.4,49.4,50,47.4,50z"/>
	<g>
		<path class="st1" d="M23.4,35.1l-1.1-18.9c-0.1-1.7,1-3.2,2.5-3.3c1.5-0.1,2.8,1.2,2.9,2.9c0,0.1,0,0.3,0,0.4l-1.1,18.9
			C26.4,37.3,23.6,37.3,23.4,35.1L23.4,35.1z"/>
		<ellipse class="st1" cx="25" cy="42" rx="2.2" ry="2.5"/>
	</g>
</g>
</svg>
